<svg width="24" height="22" viewBox="0 0 24 22" fill="none" xmlns="http://www.w3.org/2000/svg">
<path d="M6.375 0C7.67733 0 8.87133 0.412687 9.92377 1.22662C10.9327 2.00695 11.6045 3.00084 12 3.72356C12.3955 3.0008 13.0673 2.00695 14.0762 1.22662C15.1287 0.412687 16.3227 0 17.625 0C21.2593 0 24 2.97267 24 6.91472C24 11.1735 20.5808 14.0873 15.4046 18.4984C14.5256 19.2475 13.5293 20.0966 12.4937 21.0022C12.3572 21.1217 12.1819 21.1875 12 21.1875C11.8181 21.1875 11.6428 21.1217 11.5063 21.0022C10.4707 20.0965 9.47437 19.2474 8.59486 18.4979C3.4192 14.0873 0 11.1735 0 6.91472C0 2.97267 2.74069 0 6.375 0Z" fill="#BFBFBF"/>
</svg>
