<svg width="17" height="17" viewBox="0 0 17 17" fill="none" xmlns="http://www.w3.org/2000/svg">
<path d="M15.8717 16.8063L11.723 12.6575C10.4829 13.6888 8.8904 14.3101 7.15527 14.3101C3.20984 14.3101 -4.8521e-07 11.1003 -3.12758e-07 7.15508C-1.40302e-07 3.20974 3.20984 1.40307e-07 7.15527 3.12767e-07C11.1004 4.85216e-07 14.31 3.20974 14.31 7.15508C14.31 8.89011 13.6888 10.4826 12.6576 11.7228L16.8064 15.8717C16.9355 16.0007 17 16.1699 17 16.339C17 16.5081 16.9355 16.6773 16.8064 16.8064C16.5483 17.0645 16.1298 17.0645 15.8717 16.8063ZM7.15527 1.3219C3.93874 1.3219 1.3219 3.93864 1.3219 7.15508C1.3219 10.3714 3.93874 12.9881 7.15527 12.9881C10.3715 12.9881 12.9881 10.3714 12.9881 7.15508C12.9881 3.93864 10.3715 1.3219 7.15527 1.3219Z" fill="black" fill-opacity="0.55"/>
</svg>
