<svg width="17" height="17" viewBox="0 0 17 17" fill="none" xmlns="http://www.w3.org/2000/svg">
<path d="M8.5 5.04688C6.57754 5.04688 5.01367 6.61074 5.01367 8.5332C5.01367 10.4557 6.57754 12.0195 8.5 12.0195C10.4225 12.0195 11.9863 10.4557 11.9863 8.5332C11.9863 6.61074 10.4225 5.04688 8.5 5.04688ZM8.5 5.04688C6.57754 5.04688 5.01367 6.61074 5.01367 8.5332C5.01367 10.4557 6.57754 12.0195 8.5 12.0195C10.4225 12.0195 11.9863 10.4557 11.9863 8.5332C11.9863 6.61074 10.4225 5.04688 8.5 5.04688ZM14.5098 0H2.49023C1.11562 0 0 1.11562 0 2.49023V14.5098C0 15.8844 1.11562 17 2.49023 17H14.5098C15.8844 17 17 15.8844 17 14.5098V2.49023C17 1.11562 15.8844 0 14.5098 0ZM8.5 13.0156C6.02972 13.0156 4.01758 11.0035 4.01758 8.5332C4.01758 6.06286 6.02972 4.05078 8.5 4.05078C10.9703 4.05078 12.9824 6.06286 12.9824 8.5332C12.9824 11.0035 10.9703 13.0156 8.5 13.0156ZM13.9785 4.05078C13.4307 4.05078 12.9824 3.60254 12.9824 3.05469C12.9824 2.50684 13.4307 2.05859 13.9785 2.05859C14.5264 2.05859 14.9746 2.50684 14.9746 3.05469C14.9746 3.60254 14.5264 4.05078 13.9785 4.05078ZM8.5 5.04688C6.57754 5.04688 5.01367 6.61074 5.01367 8.5332C5.01367 10.4557 6.57754 12.0195 8.5 12.0195C10.4225 12.0195 11.9863 10.4557 11.9863 8.5332C11.9863 6.61074 10.4225 5.04688 8.5 5.04688ZM8.5 5.04688C6.57754 5.04688 5.01367 6.61074 5.01367 8.5332C5.01367 10.4557 6.57754 12.0195 8.5 12.0195C10.4225 12.0195 11.9863 10.4557 11.9863 8.5332C11.9863 6.61074 10.4225 5.04688 8.5 5.04688ZM8.5 5.04688C6.57754 5.04688 5.01367 6.61074 5.01367 8.5332C5.01367 10.4557 6.57754 12.0195 8.5 12.0195C10.4225 12.0195 11.9863 10.4557 11.9863 8.5332C11.9863 6.61074 10.4225 5.04688 8.5 5.04688Z" fill="white"/>
</svg>
